# xmcd CD database file
#
# Track frame offsets:
#	150
#	27072
#	57045
#	76240
#
# Disc length: 1388 seconds
#
# Revision: 0
# Processed by: cddbd v1.5.1PL2 Copyright (c) Steve Scherf et al.
# Submitted via: CDex 1.50beta9
#
DISCID=20056a04
DTITLE=EPO - 聖き彼の人 WINTER LOVERS
DYEAR=1997
DGENRE=JPop
TTITLE0=聖き彼の人
TTITLE1=WINTER LOVERS
TTITLE2=満ち行きて
TTITLE3=聖き彼の人 Isyleria Salya MIX
EXTD=YEAR: 1997
EXTT0=
EXTT1=
EXTT2=
EXTT3=
PLAYORDER=
